<svg data-name="Layer 1" viewBox="0 0 128 128" xmlns="http://www.w3.org/2000/svg"><path d="M62.64 103.35a1 1 0 0 0-1.41 0l-17.37 17.36a1 1 0 0 0 0 1.41 1 1 0 0 0 .71.3 1 1 0 0 0 .71-.3l17.36-17.36a1 1 0 0 0 0-1.41ZM58.66 116.33a1 1 0 0 0 .7-.29l7.28-7.28a1 1 0 0 0-1.41-1.41L58 114.62a1 1 0 0 0 .71 1.71ZM55.18 117.39l-2.81 2.81a1 1 0 0 0 .71 1.71 1 1 0 0 0 .7-.3l2.82-2.81a1 1 0 0 0 0-1.41 1 1 0 0 0-1.42 0ZM5.88 84.14a1 1 0 0 0 .7.29 1 1 0 0 0 .71-.29l17.36-17.37a1 1 0 1 0-1.41-1.41L5.88 82.72a1 1 0 0 0 0 1.42ZM13.38 70.05l7.27-7.28a1 1 0 1 0-1.41-1.41L12 68.64a1 1 0 0 0 .71 1.7 1 1 0 0 0 .67-.29ZM7.8 75.63l2.81-2.81a1 1 0 0 0 0-1.42 1 1 0 0 0-1.41 0l-2.82 2.82a1 1 0 0 0 0 1.41 1 1 0 0 0 .71.29 1 1 0 0 0 .71-.29ZM68 33.59l-40.88 6.46a1 1 0 0 0-.55.28l-6.51 6.51a1 1 0 0 0 0 1.42l16.65 16.65L32 69.63a1 1 0 0 0 0 1.42l11.46 11.46-4.54 4.55a1 1 0 0 0 .7 1.7 1 1 0 0 0 .71-.29l4.54-4.54L57 96a1 1 0 0 0 1.42 0l4.72-4.72 16.65 16.65a1 1 0 0 0 1.42 0l6-6 .54-.54a1 1 0 0 0 .28-.55L94.41 60l20.29-20.3a22.75 22.75 0 0 0 5.92-10.34.61.61 0 0 0 0-.13 22 22 0 0 0 .62-3.43l1.11-11.27a8.12 8.12 0 0 0-8.88-8.88l-11.24 1.08a22.74 22.74 0 0 0-3.41.61h-.15a22.75 22.75 0 0 0-10.34 5.96ZM44.1 57.53 28.43 41.87 65.63 36Zm-21.92-10L26.73 43l16 15.94-4.6 4.56Zm58.27 58.27-16-15.95L69 85.3l16 16Zm5.68-6.26L70.47 83.9 92 62.37Zm16.3-90.84 11.26-1.11a6.14 6.14 0 0 1 6.7 6.7l-1.11 11.26c0 .45-.12.9-.19 1.35l-18-18c.44-.06.91-.14 1.34-.18Zm-3.66.7 19.81 19.81a20.92 20.92 0 0 1-5.29 9L57.66 93.88 46.29 82.51l28.77-28.77a1 1 0 0 0 0-1.41 1 1 0 0 0-1.42 0L44.87 81.1 34.12 70.34 44.8 59.65l44.94-44.94a21 21 0 0 1 9.03-5.29ZM10.9 120.42a3.27 3.27 0 0 0 1.42-.32l19.52-9.1A11.19 11.19 0 1 0 17 96.16l-9.1 19.52a3.33 3.33 0 0 0 3 4.74Zm-1.19-3.89L18.78 97a9.12 9.12 0 0 1 6.74-5.18 10.21 10.21 0 0 1 1.65-.14 9.21 9.21 0 0 1 9 10.8 9.12 9.12 0 0 1-5.17 6.74l-19.53 9.07a1.32 1.32 0 0 1-1.76-1.76Z" fill="#ffffff" class="fill-000000"></path><path d="M96.18 42.27a10.46 10.46 0 1 0-7.39-3.06 10.42 10.42 0 0 0 7.39 3.06Zm-6-16.43a8.46 8.46 0 1 1 0 12 8.4 8.4 0 0 1 .03-12Z" fill="#ffffff" class="fill-000000"></path></svg>